<svg width="64" height="64" viewBox="0 0 64 64" xmlns="http://www.w3.org/2000/svg">
  <!-- Pickaxe Head - Dark Brown -->
  <rect x="12" y="4" width="8" height="4" fill="#462814" />
  <rect x="20" y="4" width="8" height="4" fill="#462814" />
  <rect x="28" y="4" width="12" height="4" fill="#462814" />
  <rect x="40" y="8" width="8" height="4" fill="#462814" />
  <rect x="8" y="8" width="4" height="4" fill="#462814" />
  <rect x="4" y="12" width="4" height="4" fill="#462814" />
  <rect x="8" y="12" width="4" height="4" fill="#5A350F" />
  <rect x="40" y="12" width="4" height="4" fill="#462814" />
  <rect x="44" y="12" width="4" height="4" fill="#462814" />
  
  <!-- Handle - Medium Brown -->
  <rect x="24" y="8" width="8" height="4" fill="#8B5A2B" />
  <rect x="24" y="12" width="8" height="4" fill="#8B5A2B" />
  <rect x="24" y="16" width="8" height="4" fill="#8B5A2B" />
  <rect x="24" y="20" width="8" height="4" fill="#8B5A2B" />
  <rect x="24" y="24" width="8" height="4" fill="#8B5A2B" />
  <rect x="24" y="28" width="8" height="4" fill="#8B5A2B" />
  <rect x="24" y="32" width="8" height="4" fill="#8B5A2B" />
  <rect x="24" y="36" width="8" height="4" fill="#8B5A2B" />
  <rect x="24" y="40" width="8" height="4" fill="#8B5A2B" />
  <rect x="24" y="44" width="8" height="4" fill="#8B5A2B" />
  <rect x="24" y="48" width="8" height="4" fill="#8B5A2B" />
  <rect x="24" y="52" width="8" height="4" fill="#A0522D" />
  
  <!-- Pickaxe Head Details - Light Brown -->
  <rect x="12" y="8" width="12" height="4" fill="#5A350F" />
  <rect x="28" y="8" width="12" height="4" fill="#5A350F" />
  <rect x="12" y="12" width="8" height="4" fill="#5A350F" />
  <rect x="32" y="12" width="8" height="4" fill="#5A350F" />
  
  <!-- Handle Highlights - Light Brown -->
  <rect x="28" y="16" width="4" height="4" fill="#A0522D" />
  <rect x="28" y="24" width="4" height="4" fill="#A0522D" />
  <rect x="28" y="32" width="4" height="4" fill="#A0522D" />
  <rect x="28" y="40" width="4" height="4" fill="#A0522D" />
  <rect x="28" y="48" width="4" height="4" fill="#A0522D" />
</svg> 