<svg xmlns="http://www.w3.org/2000/svg" width="48" height="48" viewBox="0 0 48 48">
  <!-- Pixel art padlock - using rectangles for a blocky appearance -->
  
  <!-- Lock body -->
  <rect x="10" y="20" width="28" height="22" fill="#888888" />
  <rect x="12" y="22" width="24" height="18" fill="#666666" />
  
  <!-- Lock shackle -->
  <rect x="14" y="10" width="6" height="10" fill="#888888" />
  <rect x="28" y="10" width="6" height="10" fill="#888888" />
  <rect x="14" y="8" width="20" height="6" fill="#888888" />
  
  <!-- Keyhole -->
  <rect x="20" y="28" width="8" height="8" fill="#333333" />
  <rect x="22" y="32" width="4" height="6" fill="#333333" />
  
  <!-- Highlights -->
  <rect x="14" y="24" width="4" height="4" fill="#AAAAAA" />
  <rect x="14" y="10" width="2" height="8" fill="#AAAAAA" />
  
  <!-- Border/outline -->
  <rect x="10" y="8" width="2" height="2" fill="#333333" />
  <rect x="12" y="8" width="22" height="2" fill="#333333" />
  <rect x="34" y="8" width="4" height="2" fill="#333333" />
  <rect x="38" y="10" width="2" height="10" fill="#333333" />
  <rect x="8" y="20" width="2" height="22" fill="#333333" />
  <rect x="10" y="42" width="28" height="2" fill="#333333" />
  <rect x="38" y="20" width="2" height="22" fill="#333333" />
  <rect x="12" y="6" width="24" height="2" fill="#333333" />
  <rect x="10" y="6" width="2" height="2" fill="#333333" />
  <rect x="36" y="6" width="2" height="2" fill="#333333" />
  <rect x="10" y="20" width="28" height="2" fill="#333333" />
  <rect x="14" y="8" width="2" height="12" fill="#333333" />
  <rect x="20" y="8" width="8" height="2" fill="#333333" />
  <rect x="28" y="10" width="2" height="10" fill="#333333" />
  <rect x="20" y="28" width="8" height="2" fill="#555555" />
  <rect x="20" y="28" width="2" height="8" fill="#555555" />
  <rect x="26" y="28" width="2" height="8" fill="#555555" />
  <rect x="20" y="34" width="8" height="2" fill="#555555" />
  <rect x="22" y="32" width="4" height="2" fill="#555555" />
  <rect x="22" y="36" width="4" height="2" fill="#555555" />
</svg> 